<svg width="600" height="636" viewBox="0 0 600 636" fill="none" xmlns="http://www.w3.org/2000/svg">
<g clip-path="url(#clip0_22_3032)">
<rect width="1200" height="687" transform="matrix(-1 0 0 1 932 -26)" fill="#D9D9D9"/>
<g style="mix-blend-mode:color-burn" opacity="0.8">
<path d="M389.029 30.1151H501.315V44.3804H389.029V30.1151ZM394.961 52.0074H496.23V65.7077H394.961V52.0074ZM381.261 73.7584H509.366V88.3061H381.261V73.7584ZM383.944 98.6166H507.106V113.306H383.944V98.6166ZM468.265 86.6112H485.637V134.068C485.637 142.26 484.084 146.78 478.434 149.463C472.643 152.005 464.875 152.288 454.564 152.288C453.858 147.486 451.175 140.424 448.915 135.763C455.694 136.045 463.321 136.045 465.44 136.045C467.7 136.045 468.265 135.48 468.265 133.644V86.6112ZM434.65 19.8046L453.152 21.6407C446.09 82.0915 430.836 124.04 393.407 148.192C390.583 144.802 382.532 137.881 378.154 134.774C415.158 114.294 428.859 75.5945 434.65 19.8046ZM417.842 126.158L431.542 117.684C437.474 123.475 444.96 131.808 448.491 137.458L433.943 147.062C430.836 141.412 423.633 132.514 417.842 126.158ZM513.038 28.5615H618.121V44.6629H513.038V28.5615ZM514.309 54.8322H597.923V69.5212H514.309V54.8322ZM612.188 28.5615H629.561V131.243C629.561 140.989 627.866 146.215 621.793 149.181C615.861 152.005 606.963 152.429 594.11 152.429C593.545 147.344 591.002 138.87 588.601 134.068C596.652 134.492 605.833 134.492 608.657 134.35C611.2 134.35 612.188 133.644 612.188 130.961V28.5615ZM521.654 79.9729H538.179V138.305H521.654V79.9729ZM536.343 79.9729H590.579V127.995H536.343V113.447H573.912V94.6619H536.343V79.9729ZM690.577 25.313C690.012 27.9965 689.447 34.0699 689.306 37.6009C688.599 48.7589 688.176 64.0128 688.176 77.1481C688.176 92.5433 689.023 116.978 689.023 125.17C689.023 142.542 682.809 147.344 673.487 147.344C659.786 147.344 640.295 135.48 640.295 120.509C640.295 106.809 657.95 92.4021 677.583 85.4813C690.153 80.9616 704.418 78.7018 715.153 78.7018C736.904 78.7018 754.135 90.001 754.135 109.492C754.135 126.3 745.378 138.87 722.921 144.378C716.424 145.791 710.068 146.215 704.277 146.78L697.921 128.418C704.136 128.418 710.35 128.418 715.153 127.43C726.593 125.452 735.774 119.661 735.774 109.492C735.774 99.7466 727.299 94.2382 715.011 94.2382C703.006 94.2382 690.577 96.7805 679.56 101.159C666.848 105.961 657.809 113.588 657.809 119.661C657.809 124.181 664.447 127.995 668.12 127.995C670.662 127.995 672.498 126.865 672.498 121.921C672.498 114.577 671.792 94.9444 671.792 77.8543C671.792 61.7529 671.933 44.2392 671.933 37.7421C671.933 34.9173 671.509 27.8553 671.086 25.313H690.577ZM730.83 40.7082C741.564 45.9341 757.948 55.1147 765.575 60.4818L756.96 74.8883C750.18 69.2387 731.819 58.6457 723.062 54.4085L730.83 40.7082ZM644.109 48.4764C652.442 49.4651 658.515 49.4651 663.6 49.4651C678.289 49.4651 700.322 46.7815 714.87 42.5443L715.294 60.0581C699.334 63.7303 676.594 66.2726 664.165 66.2726C654.843 66.2726 649.335 66.1314 644.532 65.5664L644.109 48.4764ZM459.084 159.878C458.66 162.703 458.237 166.234 458.095 169.906C457.813 177.109 457.672 197.165 457.672 209.03C457.672 224.566 459.932 250.13 459.932 261.288C459.932 273.435 450.751 282.757 432.249 282.757C409.65 282.757 397.786 274.141 397.786 259.17C397.786 244.905 410.921 234.876 432.531 234.876C463.604 234.876 486.767 250.13 498.49 260.017L488.321 275.836C474.903 263.125 454.423 249.424 430.271 249.424C420.384 249.424 414.876 253.238 414.876 258.181C414.876 263.548 419.819 266.797 429.565 266.797C437.051 266.797 442.135 264.678 442.135 256.486C442.135 248.012 440.582 222.73 440.582 209.03C440.582 195.47 440.723 177.533 440.723 169.482C440.723 166.94 440.44 162.562 439.875 159.878H459.084ZM400.469 173.013C410.498 174.708 426.74 176.121 435.356 176.121C454.564 176.121 473.067 175.132 493.688 171.883L493.547 187.985C479.14 189.962 456.683 191.657 435.497 191.657C426.458 191.657 410.074 190.386 400.752 189.256L400.469 173.013ZM399.622 203.521C408.944 205.216 426.175 206.205 433.661 206.205C459.79 206.205 478.01 204.51 495.383 202.25L495.242 218.916C475.75 221.176 460.355 222.024 433.52 222.024C425.187 222.024 409.226 221.317 399.905 220.187L399.622 203.521ZM566.992 162.562C566.144 166.234 565.297 170.753 564.449 174.284C563.178 180.64 561.342 189.397 559.93 196.6C555.269 216.515 543.828 256.769 529.139 280.638L510.637 273.294C527.444 250.695 538.037 213.408 541.992 195.612C544.676 182.9 546.229 170.895 546.088 160.302L566.992 162.562ZM615.719 175.697C624.335 187.985 636.199 214.82 640.578 228.379L622.64 236.713C618.968 220.894 608.94 195.47 598.771 182.9L615.719 175.697ZM509.789 191.516C514.874 191.798 519.676 191.657 524.902 191.516C536.201 191.233 562.896 188.126 573.489 188.126C588.319 188.126 598.912 194.764 598.912 215.244C598.912 231.91 596.935 254.791 591.002 266.938C586.2 276.825 578.432 279.932 567.839 279.932C562.331 279.932 555.692 279.085 550.749 277.955L547.783 259.311C553.291 260.865 561.342 262.277 565.014 262.277C569.816 262.277 573.347 260.865 575.607 256.204C579.562 248.294 581.398 231.063 581.398 217.221C581.398 205.922 576.455 204.227 567.698 204.227C559.223 204.227 534.93 207.335 527.162 208.323C523.066 208.888 515.721 209.877 511.484 210.583L509.789 191.516ZM737.045 163.268C736.621 165.528 736.339 171.742 736.197 175.414C735.915 185.019 735.915 193.069 735.632 200.273C735.35 212.843 734.926 228.097 733.514 235.3C731.96 242.786 728.288 244.622 721.085 244.622C716.141 244.622 704.701 243.351 699.899 242.503L700.181 226.967C704.56 227.956 710.492 228.662 713.316 228.662C716 228.662 717.271 228.238 717.695 225.413C718.401 220.046 718.684 209.877 718.966 200.131C718.966 192.787 718.966 184.595 718.966 176.262C718.966 172.59 718.401 165.951 717.977 163.268H737.045ZM681.396 167.505C680.831 172.166 680.549 176.121 680.549 182.194C680.549 195.047 679.984 232.334 680.266 243.916C680.69 257.899 681.82 261.006 703.006 261.006C716.847 261.006 734.785 259.311 745.237 257.334L744.531 276.684C735.067 277.672 717.836 278.943 704.277 278.943C667.837 278.943 663.317 271.175 662.752 246.741C662.47 234.594 662.611 191.657 662.611 183.183C662.611 177.25 662.188 172.448 661.481 167.505H681.396ZM634.222 199.425C638.177 199.425 644.674 199.143 651.877 198.295C666.142 197.024 719.249 191.798 746.508 190.103C750.321 189.821 755.83 189.397 760.067 189.115V206.346C757.525 206.205 750.039 206.487 746.367 206.487C724.333 207.193 669.391 213.125 653.007 214.962C648.628 215.527 639.872 216.798 636.058 217.363L634.222 199.425Z" fill="#DD2B2B"/>
</g>
</g>
<defs>
<clipPath id="clip0_22_3032">
<rect width="600" height="636" fill="white"/>
</clipPath>
</defs>
</svg>
